<svg xmlns="http://www.w3.org/2000/svg" width="128" height="32" viewBox="0 0 128 32" fill="none">
  <!-- Flame glyph -->
  <defs>
    <linearGradient id="g1" x1="0" y1="0" x2="0" y2="1">
      <stop offset="0" stop-color="#ffd7aa"/>
      <stop offset="0.55" stop-color="#ff8f1f"/>
      <stop offset="1" stop-color="#dc2626"/>
    </linearGradient>
  </defs>
  <g transform="translate(4,4)">
    <path d="M12 0c2.5 3.2 3.6 6.4 3 9.2-.6 3-3 5.2-5.8 6.4-2.9 1.2-6.1 1.2-8.2.2C4.7 13.5 6 10.6 6 8c0-1.8-.5-3.5-1.4-5C7.2 3.2 9.7 2 12 0z" fill="url(#g1)"/>
    <circle cx="12" cy="18" r="3" fill="#fff" opacity=".9"/>
  </g>
  <!-- Brand text simplified (vector) for better sharpness) -->
  <g fill="#ffffff" opacity="0.95" transform="translate(28,8)">
    <path d="M2 0h4v16H2zM8 4h4v12H8zM14 0h4v16h-4zM22 4h4v12h-4z"/>
  </g>
</svg>

